<svg width="94" height="125" viewBox="0 0 94 125" fill="none" xmlns="http://www.w3.org/2000/svg">
<path d="M89.9468 56.8424C88.908 56.8424 87.9118 56.2981 87.1773 55.3291C86.4428 54.3602 86.0301 53.046 86.0301 51.6758C86.0218 40.7168 82.718 30.2099 76.8436 22.4608C70.9693 14.7116 63.0044 10.3534 54.6968 10.3424C53.658 10.3424 52.6618 9.79808 51.9273 8.82914C51.1928 7.86021 50.7801 6.54604 50.7801 5.17576C50.7801 3.80547 51.1928 2.49131 51.9273 1.52237C52.6618 0.553435 53.658 0.00909161 54.6968 0.00909161C65.0809 0.0241349 75.0365 5.4724 82.3792 15.1585C89.7219 24.8446 93.8521 37.9775 93.8635 51.6758C93.8635 53.046 93.4508 54.3602 92.7163 55.3291C91.9818 56.2981 90.9856 56.8424 89.9468 56.8424ZM78.1968 51.6758C78.1968 43.454 75.7209 35.5691 71.3138 29.7555C66.9067 23.9418 60.9294 20.6758 54.6968 20.6758C53.658 20.6758 52.6618 21.2201 51.9273 22.189C51.1928 23.158 50.7801 24.4721 50.7801 25.8424C50.7801 27.2127 51.1928 28.5269 51.9273 29.4958C52.6618 30.4647 53.658 31.0091 54.6968 31.0091C58.8519 31.0091 62.8367 33.1865 65.7748 37.0622C68.7129 40.938 70.3635 46.1946 70.3635 51.6758C70.3635 53.046 70.7761 54.3602 71.5106 55.3291C72.2451 56.2981 73.2414 56.8424 74.2801 56.8424C75.3189 56.8424 76.3151 56.2981 77.0496 55.3291C77.7842 54.3602 78.1968 53.046 78.1968 51.6758ZM86.7469 114.523L90.311 109.103C92.5796 106.101 93.8535 102.035 93.8535 97.796C93.8535 93.5571 92.5796 89.491 90.311 86.4888C90.1896 86.3286 80.7661 76.7651 80.7661 76.7651C78.5045 73.9251 75.5003 72.3438 72.3778 72.3495C69.2553 72.3553 66.2545 73.9478 63.9989 76.7961L56.5337 85.0938C50.4401 81.7669 44.9047 76.8848 40.2454 70.7279C35.5861 64.571 31.8948 57.2606 29.3834 49.2164L35.65 39.3998C37.8109 36.4247 39.0195 32.4655 39.0247 28.3452C39.0298 24.2249 37.831 20.2605 35.6775 17.2761C35.6775 17.2761 28.4199 4.86059 28.2985 4.70043C26.0638 1.73346 23.034 0.045372 19.8636 0.000901318C16.6933 -0.0435694 13.6369 1.55915 11.355 4.46276L6.8508 9.62943C-19.759 50.3531 37.5418 125.358 69.4313 124.009C72.6515 124.034 75.8428 123.207 78.8168 121.578C81.7908 119.948 84.4873 117.55 86.7469 114.523V114.523Z" fill="white"/>
</svg>
