<svg width="188" height="170" viewBox="0 0 188 170" fill="none" xmlns="http://www.w3.org/2000/svg">
<g clip-path="url(#clip0_7_3)">
<path d="M127.5 -0.000175808C118.086 0.00252251 108.73 1.47224 99.7686 4.35607C95.0117 6.00578 90.0322 6.92524 84.9998 7.08316C79.9675 6.92524 74.988 6.00578 70.2311 4.35607C61.2696 1.47314 51.9137 0.00344501 42.4998 -0.000175808C36.8613 -0.213934 31.2393 0.739138 25.9863 2.79932C20.7332 4.8595 15.9623 7.9824 11.9723 11.9723C7.9824 15.9622 4.85951 20.7332 2.79933 25.9863C0.739143 31.2393 -0.213929 36.8613 -0.000171036 42.4998C-0.000171036 88.1377 23.7644 133.067 40.8565 162.102C42.657 165.139 45.4052 167.501 48.6786 168.825C51.9521 170.148 55.5696 170.36 58.9751 169.427C62.3806 168.494 65.3855 166.469 67.5278 163.662C69.6702 160.856 70.8315 157.423 70.8332 153.892V107.008C70.7567 103.559 71.8955 100.194 74.0503 97.5001C76.2051 94.8066 79.2386 92.9568 82.6198 92.2744C84.6532 91.9279 86.7377 92.0296 88.7277 92.5723C90.7177 93.1151 92.5651 94.0859 94.1409 95.4168C95.7168 96.7478 96.9829 98.4068 97.851 100.278C98.719 102.149 99.168 104.187 99.1665 106.25V153.892C99.1682 157.423 100.329 160.856 102.472 163.662C104.614 166.469 107.619 168.494 111.025 169.427C114.43 170.36 118.048 170.148 121.321 168.825C124.595 167.501 127.343 165.139 129.143 162.102C146.242 133.06 170 88.1307 170 42.4998C170.214 36.8613 169.261 31.2393 167.2 25.9863C165.14 20.7332 162.017 15.9622 158.027 11.9723C154.037 7.9824 149.266 4.8595 144.013 2.79932C138.76 0.739138 133.138 -0.213934 127.5 -0.000175808V-0.000175808Z" fill="url(#paint0_angular_7_3)"/>
</g>
<path d="M185.635 41.2246L154.818 11.155C153.656 10.0595 152.099 9.45332 150.483 9.46702C148.867 9.48073 147.321 10.1132 146.179 11.2282C145.036 12.3433 144.388 13.8516 144.374 15.4285C144.36 17.0053 144.981 18.5244 146.104 19.6587L157.154 30.4416L147.996 39.3602C142.076 35.1193 134.8 33.0804 127.476 33.6107C120.153 34.1411 113.264 37.2058 108.051 42.2529L70.6459 78.7694C66.6279 82.669 63.4423 87.3074 61.2736 92.4161C59.1048 97.5249 57.9959 103.003 58.011 108.532V127.175L41.3269 143.461C40.7382 144.016 40.2687 144.679 39.9457 145.413C39.6227 146.147 39.4527 146.936 39.4455 147.735C39.4384 148.533 39.5944 149.325 39.9043 150.064C40.2142 150.803 40.6718 151.475 41.2505 152.039C41.8292 152.604 42.5173 153.051 43.2748 153.353C44.0323 153.655 44.8438 153.807 45.6622 153.801C46.4806 153.794 47.2893 153.628 48.0413 153.313C48.7932 152.997 49.4733 152.539 50.0419 151.965L66.726 135.685H85.8323C91.4994 135.7 97.1132 134.618 102.349 132.502C107.585 130.386 112.338 127.277 116.335 123.357L153.758 86.8401C158.935 81.7598 162.079 75.0411 162.624 67.8969C163.169 60.7527 161.078 53.6538 156.729 47.882L165.869 38.9453L176.92 49.7282C178.083 50.8237 179.639 51.4299 181.255 51.4162C182.871 51.4025 184.417 50.77 185.56 49.655C186.703 48.5399 187.351 47.0316 187.365 45.4548C187.379 43.8779 186.758 42.3588 185.635 41.2246V41.2246ZM145.05 78.3364L107.626 114.853C104.771 117.653 101.376 119.873 97.6359 121.384C93.8961 122.896 89.8863 123.668 85.8385 123.657H70.3377V108.532C70.3396 106.562 70.5357 104.596 70.9232 102.663L78.3192 109.879C78.8878 110.454 79.5678 110.912 80.3198 111.227C81.0718 111.542 81.8805 111.708 82.6989 111.715C83.5172 111.722 84.3288 111.57 85.0863 111.268C85.8437 110.965 86.5319 110.519 87.1106 109.954C87.6892 109.389 88.1469 108.718 88.4568 107.979C88.7667 107.24 88.9226 106.448 88.9155 105.649C88.9084 104.851 88.7384 104.062 88.4154 103.328C88.0924 102.594 87.6228 101.931 87.0342 101.376L76.3038 90.9055C77.2328 89.626 78.2632 88.4195 79.3855 87.2972L85.746 81.0427L96.7969 91.8256C97.9593 92.9211 99.5162 93.5273 101.132 93.5136C102.748 93.4999 104.294 92.8674 105.437 91.7524C106.579 90.6374 107.228 89.129 107.242 87.5522C107.256 85.9753 106.635 84.4562 105.512 83.322L94.461 72.539L104.236 63.0009L115.287 73.7839C116.449 74.8794 118.006 75.4855 119.622 75.4718C121.238 75.4581 122.784 74.8257 123.927 73.7106C125.069 72.5956 125.718 71.0872 125.732 69.5104C125.746 67.9336 125.125 66.4145 124.002 65.2802L112.951 54.4973L116.785 50.7566C120.307 47.4779 124.989 45.6488 129.857 45.6488C134.725 45.6488 139.407 47.4779 142.929 50.7566L145.05 52.8254C148.516 56.2087 150.463 60.7969 150.463 65.5809C150.463 70.3649 148.516 74.9531 145.05 78.3364Z" fill="#2420F2"/>
<defs>
<radialGradient id="paint0_angular_7_3" cx="0" cy="0" r="1" gradientUnits="userSpaceOnUse" gradientTransform="translate(84.9998 84.9849) rotate(90) scale(85.0145 39.8035)">
<stop offset="0.964196" stop-color="#CDE1FF" stop-opacity="0"/>
<stop offset="0.973714" stop-color="#CDE1FF"/>
</radialGradient>
<clipPath id="clip0_7_3">
<rect width="170" height="170" fill="white"/>
</clipPath>
</defs>
</svg>
